<svg width="1024" height="1024" viewBox="0 0 1024 1024" xmlns="http://www.w3.org/2000/svg" role="img" aria-label="OpenDeck app icon (tinted)">
  <!-- OpenDeck app-icon master — tinted (monochrome) appearance. Grayscale on
       black: iOS maps luminance to the user's chosen tint. Same layered-"D"
       mark + glassy translucency expressed as graytones (front brightest). -->
  <g id="bg">
    <rect width="1024" height="1024" fill="#000000"/>
  </g>
  <g id="fg" transform="translate(512 512) scale(0.9) translate(-512 -512)">
    <path d="M282 162 H654 A290 290 0 0 1 944 452 V492 A290 290 0 0 1 654 782 H282 A48 48 0 0 1 234 734 V210 A48 48 0 0 1 282 162 Z"
          fill="#787878"/>
    <path d="M240 206 H612 A290 290 0 0 1 902 496 V536 A290 290 0 0 1 612 826 H240 A48 48 0 0 1 192 778 V254 A48 48 0 0 1 240 206 Z"
          fill="#B4B4B4" fill-opacity="0.84"/>
    <path d="M198 250 H570 A290 290 0 0 1 860 540 V580 A290 290 0 0 1 570 870 H198 A48 48 0 0 1 150 822 V298 A48 48 0 0 1 198 250 Z"
          fill="#FFFFFF" fill-opacity="0.88"/>
  </g>
</svg>
